<svg xmlns="http://www.w3.org/2000/svg" width="192" height="192" viewBox="0 0 192 192">
  <rect width="192" height="192" rx="38" fill="#0E0E1A"/>
  <g transform="translate(96,96) scale(1.9) translate(-40,-40)">
    <rect x="10" y="10" width="60" height="8" rx="2" fill="#C9A84C"/>
    <polygon points="14,18 66,18 62,26 18,26" fill="#B8903C"/>
    <polygon points="20,26 60,26 63,62 17,62" fill="#C9A84C"/>
    <line x1="27" y1="26" x2="24" y2="62" stroke="#0E0E1A" stroke-width="2.5" opacity="0.4"/>
    <line x1="34" y1="26" x2="32" y2="62" stroke="#0E0E1A" stroke-width="2.5" opacity="0.4"/>
    <line x1="40" y1="26" x2="40" y2="62" stroke="#0E0E1A" stroke-width="2.5" opacity="0.4"/>
    <line x1="46" y1="26" x2="48" y2="62" stroke="#0E0E1A" stroke-width="2.5" opacity="0.4"/>
    <line x1="53" y1="26" x2="56" y2="62" stroke="#0E0E1A" stroke-width="2.5" opacity="0.4"/>
    <rect x="15" y="62" width="50" height="6" rx="1" fill="#B8903C"/>
    <rect x="10" y="68" width="60" height="7" rx="1" fill="#9A6E28"/>
  </g>
</svg>